<svg width="15" height="14" viewBox="0 0 15 14" fill="none" xmlns="http://www.w3.org/2000/svg">
<g clip-path="url(#clip0_1055_11)">
<path fill-rule="evenodd" clip-rule="evenodd" d="M1.5332 10.8752C2.37915 10.8752 3.06641 11.5746 3.06641 12.4382C3.06641 13.3006 2.38037 14.0012 1.5332 14.0012C0.686035 14 0 13.3006 0 12.4382C0 11.5746 0.686035 10.8752 1.5332 10.8752ZM4.28101 10.981H14.8254C14.9219 10.981 15 11.0606 15 11.1589V13.6391C15 13.7374 14.9219 13.8171 14.8254 13.8171H4.28101C4.18457 13.8171 4.10645 13.7374 4.10645 13.6391V11.1589C4.10645 11.0606 4.18579 10.981 4.28101 10.981ZM4.28101 5.56267H14.8254C14.9219 5.56267 15 5.64231 15 5.74062V8.2208C15 8.31911 14.9219 8.39876 14.8254 8.39876H4.28101C4.18457 8.39876 4.10645 8.31911 4.10645 8.2208V5.74062C4.10645 5.64231 4.18579 5.56267 4.28101 5.56267ZM4.28101 0.144356H14.8254C14.9219 0.144356 15 0.224 15 0.322311V2.80249C15 2.9008 14.9219 2.98044 14.8254 2.98044H4.28101C4.18457 2.98044 4.10645 2.9008 4.10645 2.80249V0.322311C4.10645 0.224 4.18579 0.144356 4.28101 0.144356ZM1.5332 5.43698C2.37915 5.43698 3.06641 6.13636 3.06641 7C3.06641 7.8624 2.38037 8.56302 1.5332 8.56302C0.686035 8.56302 0 7.86365 0 7C0 6.1376 0.686035 5.43698 1.5332 5.43698ZM1.5332 0C2.37915 0 3.06641 0.699378 3.06641 1.56302C3.06641 2.42542 2.38037 3.12604 1.5332 3.12604C0.686035 3.1248 0 2.42542 0 1.56302C0 0.699378 0.686035 0 1.5332 0Z" fill="#0E62AB"/>
</g>
<defs>
<clipPath id="clip0_1055_11">
<rect width="15" height="14" fill="white"/>
</clipPath>
</defs>
</svg>
